<svg xmlns="http://www.w3.org/2000/svg" xmlns:xlink="http://www.w3.org/1999/xlink" width="100" zoomAndPan="magnify" viewBox="0 0 75 74.999997" height="100" preserveAspectRatio="xMidYMid meet" version="1.0"><defs><clipPath id="cfc61f7643"><path d="M 0 1.773438 L 75 1.773438 L 75 73.023438 L 0 73.023438 Z M 0 1.773438 " clip-rule="nonzero"/></clipPath><clipPath id="73edba3f1d"><path d="M 21 54 L 56 54 L 56 65.804688 L 21 65.804688 Z M 21 54 " clip-rule="nonzero"/></clipPath><clipPath id="b1129a2d2a"><path d="M 18.75 10 L 54 10 L 54 44 L 18.75 44 Z M 18.75 10 " clip-rule="nonzero"/></clipPath><clipPath id="4116690389"><path d="M 21 58 L 55 58 L 55 65.804688 L 21 65.804688 Z M 21 58 " clip-rule="nonzero"/></clipPath></defs><g clip-path="url(#cfc61f7643)"><path fill="#cecdcd" d="M 37.878906 73.019531 C 14.691406 73.019531 0.0234375 60.046875 0.0234375 38.410156 C 0.0273438 17.996094 17.445312 3.066406 37.878906 1.839844 C 59.683594 0.53125 74.128906 18.796875 74.945312 39.195312 C 75.914062 63.394531 58.347656 73.019531 37.878906 73.019531 Z M 37.878906 73.019531 " fill-opacity="1" fill-rule="nonzero"/></g><path fill="#ea8b38" d="M 21.621094 62.914062 C 19.148438 55.261719 21.679688 46.933594 21.078125 38.90625 C 20.832031 35.632812 20.0625 32.421875 19.632812 29.164062 C 18.976562 24.238281 19.101562 19.207031 19.917969 14.285156 C 22.195312 12.375 25.261719 11.789062 28.179688 11.265625 C 32.980469 10.40625 37.917969 9.546875 42.671875 10.695312 C 45.847656 11.8125 49.394531 13.28125 50.578125 16.453125 C 50.902344 17.316406 51.015625 18.242188 51.125 19.160156 C 52.613281 31.496094 54.390625 45.085938 55.878906 57.421875 C 52.132812 62.097656 45.929688 63.359375 40.007812 64.121094 C 34.089844 64.882812 28.089844 64.074219 21.621094 62.914062 Z M 21.621094 62.914062 " fill-opacity="1" fill-rule="nonzero"/><path fill="#eea139" d="M 21.824219 59.863281 C 21.605469 57.664062 22.402344 55.386719 23.941406 53.808594 C 24.363281 53.375 24.84375 52.984375 25.132812 52.449219 C 25.863281 51.085938 25.109375 49.246094 25.910156 47.925781 C 26.421875 47.082031 27.46875 46.640625 27.871094 45.738281 C 28.285156 44.804688 27.871094 43.710938 28.039062 42.703125 C 28.394531 40.582031 31.117188 39.585938 31.671875 37.507812 C 31.820312 36.945312 31.796875 36.339844 31.984375 35.789062 C 32.347656 34.71875 33.464844 34.054688 34.578125 33.898438 C 35.695312 33.742188 36.820312 34 37.914062 34.257812 C 40.046875 34.757812 42.175781 35.257812 44.308594 35.757812 C 45.417969 36.015625 46.679688 36.394531 47.140625 37.445312 C 47.34375 37.90625 47.363281 38.449219 47.652344 38.859375 C 48.160156 39.582031 49.210938 39.5625 50.003906 39.941406 C 51.628906 40.710938 51.269531 43.238281 52.492188 44.5625 C 56.21875 48.605469 55.542969 53.28125 55.878906 56.710938 C 50.484375 53.570312 43.859375 52.644531 37.816406 54.179688 C 35.347656 54.808594 32.988281 55.824219 30.523438 56.472656 C 27.691406 57.214844 24.378906 57.695312 22.804688 60.179688 C 22.605469 60.496094 22.421875 60.851562 22.097656 61.035156 C 21.769531 61.214844 21.246094 61.085938 21.820312 59.863281 Z M 21.824219 59.863281 " fill-opacity="1" fill-rule="nonzero"/><path fill="#eb7e35" d="M 20.527344 52.933594 C 23.019531 50.625 25.722656 47.84375 25.550781 44.4375 C 25.453125 42.445312 24.378906 40.3125 25.351562 38.578125 C 26.128906 37.199219 27.953125 36.652344 28.640625 35.226562 C 29.398438 33.648438 28.4375 31.703125 28.984375 30.039062 C 29.535156 28.367188 31.582031 27.511719 33.28125 27.9375 C 34.980469 28.359375 36.292969 29.789062 37.015625 31.394531 C 37.167969 31.734375 37.3125 32.101562 37.609375 32.328125 C 38.636719 33.109375 40.023438 31.472656 41.28125 31.761719 C 42.390625 32.019531 42.632812 33.527344 43.496094 34.28125 C 44.597656 35.246094 46.417969 34.75 47.625 35.578125 C 48.023438 35.855469 48.324219 36.253906 48.609375 36.648438 C 50.660156 39.488281 52.476562 42.496094 54.039062 45.632812 C 53.652344 42.1875 53.265625 38.746094 52.875 35.304688 C 52.648438 33.28125 52.417969 31.25 51.894531 29.285156 C 51.089844 26.257812 49.617188 23.460938 48.15625 20.695312 C 47.570312 19.585938 46.960938 18.449219 46 17.640625 C 45.335938 17.082031 44.535156 16.710938 43.730469 16.394531 C 37.515625 13.945312 30.273438 14.277344 24.308594 17.292969 C 22.808594 18.050781 21.3125 19.054688 20.628906 20.601562 C 20.09375 21.816406 20.136719 23.199219 20.191406 24.527344 C 20.566406 33.929688 20.941406 43.332031 20.523438 52.933594 Z M 20.527344 52.933594 " fill-opacity="1" fill-rule="nonzero"/><path fill="#f5da78" d="M 27.164062 56.582031 C 26.988281 55.371094 27.613281 54.082031 28.667969 53.476562 C 27.898438 52.542969 28.015625 50.996094 28.917969 50.191406 C 28.492188 49.078125 29.433594 47.679688 30.617188 47.664062 C 31.011719 46.621094 29.359375 45.664062 29.667969 44.597656 C 29.789062 44.179688 30.175781 43.910156 30.535156 43.675781 C 31.074219 43.320312 31.617188 42.960938 32.15625 42.605469 C 33.355469 41.816406 35.714844 39.324219 36.332031 38.734375 C 36.949219 38.148438 37.390625 37.367188 38.097656 36.894531 C 38.832031 36.40625 39.761719 36.308594 40.636719 36.394531 C 43.214844 36.640625 45.597656 38.40625 46.589844 40.8125 C 46.800781 41.320312 46.960938 41.863281 47.277344 42.3125 C 47.859375 43.125 48.882812 43.5 49.578125 44.21875 C 50.269531 44.9375 50.382812 46.433594 49.421875 46.710938 C 50.828125 47.066406 50.578125 49.113281 50.984375 50.511719 C 51.230469 51.367188 51.820312 52.074219 52.203125 52.878906 C 52.582031 53.679688 52.710938 54.738281 52.109375 55.386719 C 49.828125 54.234375 47.257812 53.828125 44.734375 53.441406 C 43.253906 53.210938 41.753906 52.984375 40.265625 53.128906 C 38.921875 53.261719 37.628906 53.695312 36.347656 54.125 C 32.621094 55.378906 28.875 56.640625 25.398438 58.480469 C 25.921875 57.789062 26.441406 57.097656 27.167969 56.582031 Z M 27.164062 56.582031 " fill-opacity="1" fill-rule="nonzero"/><path fill="#fbea94" d="M 27.511719 56.429688 C 29.429688 54.074219 30.894531 51.339844 31.792969 48.429688 C 31.957031 47.902344 32.125 47.332031 32.5625 47 C 33.019531 46.648438 33.675781 46.636719 34.121094 46.269531 C 35.078125 45.480469 34.730469 43.390625 35.957031 43.242188 C 36.382812 43.191406 36.824219 43.453125 37.222656 43.304688 C 37.828125 43.082031 37.8125 42.179688 38.273438 41.730469 C 38.710938 41.304688 39.429688 41.410156 40.003906 41.621094 C 42.160156 42.414062 43.871094 44.328125 44.433594 46.566406 C 44.816406 48.09375 44.957031 50.089844 46.445312 50.582031 C 46.773438 50.691406 47.136719 50.703125 47.425781 50.886719 C 48.355469 51.46875 47.917969 53.238281 48.910156 53.699219 C 45.070312 53.296875 41.179688 53.003906 37.359375 53.570312 C 33.539062 54.132812 29.753906 55.617188 27.511719 56.429688 Z M 27.511719 56.429688 " fill-opacity="1" fill-rule="nonzero"/><g clip-path="url(#73edba3f1d)"><path fill="#eab123" d="M 54.800781 56.558594 C 44.535156 52.847656 32.636719 54.039062 23.292969 59.707031 C 22.121094 60.421875 20.847656 61.863281 21.667969 62.96875 C 22.078125 63.515625 22.832031 63.644531 23.511719 63.726562 C 27.285156 64.191406 31.0625 64.652344 34.835938 65.117188 C 36.398438 65.308594 37.980469 65.503906 39.539062 65.28125 C 42.304688 64.886719 51.039062 61.414062 52.726562 60.558594 C 54.40625 59.707031 55.898438 58.074219 54.804688 56.5625 Z M 54.800781 56.558594 " fill-opacity="1" fill-rule="nonzero"/></g><path fill="#f6ca6d" d="M 22.144531 60.9375 C 26.171875 62.152344 30.480469 62.414062 34.625 61.6875 C 35.375 61.558594 36.128906 61.394531 36.886719 61.433594 C 37.5625 61.46875 38.214844 61.664062 38.878906 61.785156 C 40.382812 62.054688 41.960938 61.933594 43.40625 61.429688 C 46.546875 60.34375 49.148438 57.523438 52.46875 57.527344 C 53.054688 57.527344 53.78125 57.550781 54.0625 57.03125 C 54.476562 56.273438 53.429688 55.570312 52.597656 55.347656 C 47.210938 53.890625 41.5 52.859375 36.078125 54.1875 C 33.5625 54.800781 31.199219 55.90625 28.851562 57.003906 C 26.605469 58.054688 24.355469 59.109375 22.144531 60.9375 Z M 22.144531 60.9375 " fill-opacity="1" fill-rule="nonzero"/><path fill="#f1eac9" d="M 35.910156 54.195312 C 36.023438 55.929688 36.136719 57.664062 36.25 59.398438 C 36.296875 60.136719 36.402344 60.980469 37.007812 61.402344 C 37.996094 62.089844 39.355469 61.085938 40.527344 61.355469 C 41.226562 61.515625 41.914062 62.121094 42.5625 61.824219 C 42.839844 61.699219 43.019531 61.4375 43.1875 61.1875 C 43.664062 60.46875 44.117188 59.738281 44.542969 58.992188 C 45.011719 58.171875 45.460938 57.191406 45.101562 56.316406 C 44.726562 55.421875 43.6875 55.0625 42.792969 54.695312 C 41.898438 54.332031 40.917969 53.644531 40.980469 52.675781 C 39.390625 53.402344 37.636719 53.765625 35.90625 54.199219 Z M 35.910156 54.195312 " fill-opacity="1" fill-rule="nonzero"/><path fill="#f4e89f" d="M 37.746094 60.957031 C 37.261719 60.007812 36.78125 59.054688 36.296875 58.105469 C 36.933594 57.96875 36.867188 56.785156 37.507812 56.6875 C 37.761719 56.648438 38 56.816406 38.253906 56.867188 C 38.636719 56.949219 39.0625 56.714844 39.203125 56.34375 C 39.34375 55.976562 39.183594 55.515625 38.847656 55.316406 C 39.132812 54.882812 39.757812 54.890625 40.269531 54.976562 C 41.890625 55.25 43.46875 55.796875 44.914062 56.59375 C 44.824219 54.554688 42.917969 52.902344 40.902344 52.667969 C 38.882812 52.429688 36.875 53.359375 35.335938 54.691406 C 35.191406 54.816406 35.042969 54.964844 35.015625 55.152344 C 34.976562 55.433594 35.210938 55.664062 35.34375 55.910156 C 35.933594 56.984375 34.640625 58.238281 34.824219 59.453125 C 34.941406 60.207031 35.640625 60.769531 36.382812 60.925781 C 37.125 61.082031 37.894531 60.90625 37.746094 60.957031 Z M 37.746094 60.957031 " fill-opacity="1" fill-rule="nonzero"/><path fill="#f8c981" d="M 44.117188 56.816406 C 43.554688 56.726562 42.980469 56.632812 42.414062 56.726562 C 41.851562 56.816406 41.289062 57.121094 41.039062 57.636719 C 40.835938 58.054688 40.796875 58.628906 40.375 58.816406 C 40.023438 58.972656 39.621094 58.742188 39.234375 58.753906 C 38.757812 58.765625 38.328125 59.203125 38.328125 59.683594 C 38.324219 59.945312 38.429688 60.210938 38.351562 60.457031 C 38.148438 61.074219 37.097656 60.9375 36.800781 61.515625 C 37.410156 62.15625 38.402344 62.394531 39.234375 62.09375 C 39.519531 61.992188 39.808594 61.832031 40.105469 61.894531 C 40.324219 61.945312 40.496094 62.109375 40.691406 62.214844 C 41.242188 62.507812 41.914062 62.324219 42.503906 62.128906 C 43.058594 61.945312 43.625 61.746094 44.082031 61.375 C 44.539062 61.007812 44.871094 60.429688 44.792969 59.847656 C 44.761719 59.613281 44.664062 59.386719 44.664062 59.152344 C 44.660156 58.484375 45.355469 58.0625 45.957031 57.777344 C 45.640625 57.164062 45.117188 56.667969 44.117188 56.820312 Z M 44.117188 56.816406 " fill-opacity="1" fill-rule="nonzero"/><path fill="#b6892d" d="M 45.257812 57.414062 C 44.285156 57.472656 43.332031 57.808594 42.53125 58.367188 C 42.222656 58.585938 41.914062 59.003906 42.152344 59.296875 C 42.285156 59.464844 42.582031 59.558594 42.542969 59.773438 C 42.519531 59.90625 42.367188 59.96875 42.238281 60.011719 C 40.570312 60.539062 38.902344 61.066406 37.230469 61.59375 C 37.175781 61.757812 37.296875 61.941406 37.457031 62.015625 C 37.613281 62.085938 37.796875 62.074219 37.96875 62.0625 C 38.523438 62.023438 39.082031 61.980469 39.636719 61.941406 C 39.832031 61.925781 40.046875 61.921875 40.1875 62.054688 C 40.289062 62.148438 40.332031 62.296875 40.441406 62.382812 C 40.605469 62.503906 40.835938 62.4375 41.023438 62.363281 C 41.78125 62.070312 42.652344 61.644531 42.765625 60.835938 C 42.78125 60.703125 42.78125 60.550781 42.867188 60.449219 C 43.078125 60.203125 43.46875 60.472656 43.789062 60.464844 C 44.136719 60.457031 44.375 60.109375 44.503906 59.785156 C 44.632812 59.460938 44.734375 59.09375 45.019531 58.890625 C 45.289062 58.703125 45.71875 58.660156 45.804688 58.339844 C 45.835938 58.21875 45.800781 58.085938 45.753906 57.96875 C 45.617188 57.609375 45.382812 57.292969 45.257812 57.417969 Z M 45.257812 57.414062 " fill-opacity="1" fill-rule="nonzero"/><path fill="#b6892d" d="M 35.0625 54.757812 C 35.652344 55.503906 35.503906 56.578125 35.273438 57.5 C 35.042969 58.425781 34.769531 59.4375 35.179688 60.292969 C 35.367188 60.679688 35.761719 61.027344 36.179688 60.941406 C 36.308594 60.914062 36.433594 60.851562 36.5625 60.871094 C 36.886719 60.925781 36.890625 61.390625 37.074219 61.664062 C 37.394531 62.132812 38.140625 61.914062 38.652344 62.152344 C 37.925781 62.597656 36.835938 62.246094 36.503906 61.453125 C 36.464844 61.355469 36.429688 61.25 36.34375 61.191406 C 36.261719 61.136719 36.160156 61.136719 36.0625 61.132812 C 35.273438 61.085938 34.570312 60.398438 34.5 59.605469 C 34.417969 58.65625 35.125 57.828125 35.320312 56.894531 C 35.488281 56.09375 35.246094 55.214844 35.058594 54.757812 Z M 35.0625 54.757812 " fill-opacity="1" fill-rule="nonzero"/><path fill="#b6892d" d="M 42.90625 53.484375 C 43.921875 53.789062 44.542969 54.824219 44.863281 55.835938 C 44.980469 56.203125 45.070312 56.585938 45.058594 56.96875 C 45.054688 57.121094 45.035156 57.269531 45.058594 57.417969 C 45.097656 57.644531 45.234375 57.839844 45.304688 58.058594 C 45.480469 58.597656 45.171875 59.246094 44.644531 59.449219 C 44.449219 59.527344 44.21875 59.550781 44.074219 59.710938 C 43.988281 59.804688 43.953125 59.933594 43.890625 60.042969 C 43.671875 60.441406 43.121094 60.601562 42.726562 60.390625 C 42.4375 60.546875 42.617188 61.054688 42.9375 61.128906 C 43.261719 61.203125 43.578125 61 43.84375 60.800781 C 44.292969 60.453125 44.71875 60.070312 45.113281 59.660156 C 45.519531 59.234375 45.90625 58.738281 45.980469 58.152344 C 46.050781 57.566406 45.675781 56.894531 45.09375 56.84375 C 45.359375 56.226562 45.136719 55.488281 44.742188 54.945312 C 44.347656 54.398438 43.800781 53.988281 43.320312 53.519531 C 43.195312 53.394531 43.066406 53.222656 42.90625 53.488281 Z M 42.90625 53.484375 " fill-opacity="1" fill-rule="nonzero"/><g clip-path="url(#b1129a2d2a)"><path fill="#e16f2b" d="M 21.785156 36.265625 C 22.523438 34.351562 21.835938 32.222656 21.554688 30.1875 C 21.269531 28.152344 21.707031 25.625 23.605469 24.875 C 24.625 24.472656 25.925781 24.660156 26.683594 23.863281 C 27.292969 23.226562 27.300781 22.171875 27.917969 21.542969 C 28.292969 21.167969 28.824219 21.007812 29.339844 20.875 C 32.734375 20.003906 36.277344 19.714844 39.769531 20.03125 C 40.171875 20.066406 40.609375 20.128906 40.894531 20.417969 C 41.203125 20.734375 41.238281 21.222656 41.351562 21.652344 C 41.722656 23.039062 43.234375 24.011719 44.640625 23.765625 C 45.066406 23.691406 45.527344 23.527344 45.910156 23.734375 C 46.324219 23.957031 46.421875 24.5 46.523438 24.960938 C 47.417969 29.019531 51.960938 31.722656 52.191406 35.875 C 52.25 36.949219 52.203125 38.359375 53.210938 38.703125 C 52.890625 32.578125 52.230469 26.472656 51.234375 20.425781 C 50.882812 18.28125 50.449219 16.054688 49.132812 14.335938 C 47.328125 11.984375 44.242188 11.066406 41.316406 10.652344 C 34.941406 9.75 28.320312 10.636719 22.402344 13.191406 C 21.285156 13.675781 20.128906 14.269531 19.492188 15.3125 C 18.898438 16.289062 18.855469 17.496094 18.84375 18.640625 C 18.769531 26.867188 19.539062 35.097656 21.136719 43.160156 C 22.148438 40.96875 22.742188 38.582031 21.785156 36.265625 Z M 21.785156 36.265625 " fill-opacity="1" fill-rule="nonzero"/></g><path fill="#e6863b" d="M 33.609375 10.460938 C 35.875 14.296875 33.515625 19.398438 34.988281 23.605469 C 35.464844 24.96875 36.324219 26.167969 36.835938 27.515625 C 37.464844 29.179688 37.542969 30.996094 37.613281 32.773438 C 37.898438 40.113281 38.398438 43.6875 38.363281 38.132812 C 38.335938 34.328125 38.292969 30.417969 36.871094 26.894531 C 36.53125 26.046875 36.113281 25.234375 35.789062 24.386719 C 34.574219 21.230469 34.640625 17.722656 35.070312 14.363281 C 35.183594 13.460938 35.320312 12.535156 35.097656 11.652344 C 34.871094 10.769531 34.179688 9.9375 33.609375 10.460938 Z M 33.609375 10.460938 " fill-opacity="1" fill-rule="nonzero"/><path fill="#e9883b" d="M 19.832031 31.808594 C 25.066406 27.4375 32.144531 26.152344 38.902344 25.398438 C 41.320312 25.128906 43.78125 24.90625 46.171875 25.339844 C 48.566406 25.773438 50.921875 26.945312 52.304688 28.957031 C 52.484375 27.453125 51.0625 26.257812 49.695312 25.621094 C 44.621094 23.257812 38.675781 24.257812 33.265625 25.679688 C 29.582031 26.644531 25.9375 27.789062 22.417969 29.253906 C 21.046875 29.824219 19.445312 30.902344 19.832031 31.808594 Z M 19.832031 31.808594 " fill-opacity="1" fill-rule="nonzero"/><path fill="#e7883b" d="M 21.164062 47.757812 C 25.359375 45.050781 30.027344 43.167969 34.789062 41.679688 C 37.910156 40.707031 41.117188 39.886719 44.386719 39.816406 C 47.65625 39.75 51.015625 40.484375 53.6875 42.378906 C 54.0625 41.792969 53.398438 41.089844 52.789062 40.753906 C 49.546875 38.949219 45.671875 38.546875 41.996094 39.007812 C 38.320312 39.46875 34.796875 40.746094 31.363281 42.144531 C 27.734375 43.625 24.164062 45.25 20.664062 47.023438 C 20.398438 46.875 20.148438 47.425781 21.164062 47.753906 Z M 21.164062 47.757812 " fill-opacity="1" fill-rule="nonzero"/><path fill="#dc852f" d="M 21.367188 62.109375 C 23.179688 59.476562 26.234375 58.046875 29.183594 56.847656 C 32.710938 55.414062 36.3125 53.257812 40.097656 53.609375 C 44.285156 53.996094 47.8125 53.378906 51.265625 54.984375 C 52.867188 55.726562 54.386719 56.789062 55.3125 58.308594 C 55.953125 57.414062 54.972656 56.246094 54.039062 55.667969 C 49.996094 53.15625 45.039062 52.386719 40.3125 52.871094 C 35.582031 53.351562 31.039062 55.019531 26.753906 57.085938 C 24.429688 58.207031 21.914062 59.773438 21.367188 62.109375 Z M 21.367188 62.109375 " fill-opacity="1" fill-rule="nonzero"/><g clip-path="url(#4116690389)"><path fill="#dc852f" d="M 21.820312 62.261719 C 29.550781 65.40625 38.324219 64.960938 46.394531 62.871094 C 49.511719 62.0625 52.6875 60.949219 54.964844 58.65625 C 54.519531 59.34375 53.890625 59.886719 53.242188 60.378906 C 49.847656 62.960938 45.71875 64.460938 41.515625 65.128906 C 37.308594 65.796875 33.011719 65.664062 28.777344 65.214844 C 26.015625 64.921875 22.976562 64.332031 21.820312 62.261719 Z M 21.820312 62.261719 " fill-opacity="1" fill-rule="nonzero"/></g></svg>